<?xml version="1.0" standalone="no"?>
<!DOCTYPE svg PUBLIC "-//W3C//DTD SVG 20010904//EN"
 "http://www.w3.org/TR/2001/REC-SVG-20010904/DTD/svg10.dtd">
<svg version="1.0" xmlns="http://www.w3.org/2000/svg"
 width="306.000000pt" height="90.000000pt" viewBox="0 0 306.000000 90.000000"
 preserveAspectRatio="xMidYMid meet">

<g transform="translate(0.000000,90.000000) scale(0.100000,-0.100000)"
fill="#000000" stroke="none">
<path d="M45 855 l-25 -24 0 -381 0 -381 25 -24 24 -25 1458 0 c1130 1 1462 3
1474 13 37 28 39 48 39 417 0 369 -2 389 -39 417 -12 10 -344 12 -1474 13
l-1458 0 -24 -25z m595 -115 c0 -50 -55 -110 -100 -110 -24 0 -25 11 -3 57 16
34 64 73 91 73 6 0 12 -9 12 -20z m425 -4 c12 -9 16 -20 12 -36 -3 -12 0 -31
6 -41 19 -30 -3 -53 -52 -57 l-41 -3 0 69 c0 38 3 72 7 75 11 12 48 8 68 -7z
m205 -1 c0 -8 -4 -15 -9 -15 -13 0 -22 16 -14 24 11 11 23 6 23 -9z m-89 -35
c14 -8 19 -21 19 -56 l0 -45 -37 3 c-31 2 -39 7 -41 26 -3 18 3 25 27 33 33
12 32 34 0 26 -11 -3 -19 -1 -19 3 0 7 12 15 28 19 2 1 12 -4 23 -9z m313 -6
c9 -9 16 -32 16 -55 l0 -40 -42 3 c-36 2 -44 7 -46 26 -3 18 3 25 27 33 33 12
32 34 0 26 -21 -6 -26 8 -6 16 22 10 35 7 51 -9z m92 -16 c-10 -6 -16 -22 -16
-43 0 -19 -4 -35 -10 -35 -5 0 -10 23 -10 51 0 41 3 50 15 46 8 -4 18 -1 22 5
5 9 8 8 11 -1 3 -8 -3 -18 -12 -23z m185 22 c14 -8 19 -21 19 -55 0 -25 -4
-45 -10 -45 -5 0 -10 15 -10 33 0 18 -5 38 -12 45 -18 18 -38 -5 -38 -44 0
-19 -4 -34 -10 -34 -5 0 -10 23 -10 51 0 41 3 50 15 46 8 -4 17 -2 20 3 8 13
12 12 36 0z m120 0 c14 -8 19 -21 19 -55 l0 -45 -40 0 c-36 0 -40 2 -40 26 0
19 7 28 30 35 31 11 32 31 2 28 -30 -3 -37 1 -22 11 19 12 27 12 51 0z m-621
-50 c0 -38 -4 -50 -15 -50 -11 0 -15 12 -15 50 0 38 4 50 15 50 11 0 15 -12
15 -50z m67 35 c5 -14 8 -14 24 1 24 22 38 10 16 -14 -15 -17 -15 -20 -1 -41
21 -29 10 -40 -16 -16 -18 16 -20 16 -26 1 -3 -9 -13 -16 -20 -16 -12 0 -12 4
2 25 15 23 15 27 0 50 -15 22 -15 25 -1 25 9 0 18 -7 22 -15z m-812 -77 c22 0
63 3 91 7 38 5 58 3 82 -9 44 -23 46 -32 19 -68 -14 -18 -28 -43 -31 -55 -11
-36 12 -100 45 -126 l31 -24 -20 -40 c-11 -21 -34 -54 -51 -72 -29 -30 -34
-33 -73 -26 -58 9 -104 9 -160 0 -45 -7 -48 -6 -78 26 -48 53 -82 135 -87 209
-4 55 -1 72 19 109 30 57 78 84 133 76 22 -4 58 -7 80 -7z m1436 -118 c12 0
19 -7 19 -20 0 -17 -7 -20 -50 -20 -37 0 -52 -4 -58 -17 -14 -28 -4 -42 48
-68 84 -43 102 -94 51 -146 -25 -25 -37 -29 -83 -29 -59 0 -81 10 -73 31 4 10
22 14 61 14 93 0 102 49 18 89 -59 28 -74 45 -74 86 0 54 57 98 108 84 8 -2
22 -4 33 -4z m-791 -152 l47 -148 -27 0 c-24 0 -29 5 -39 45 l-11 45 -49 0
c-49 0 -49 0 -63 -42 -12 -34 -20 -44 -40 -46 l-26 -3 44 138 c25 76 47 144
49 151 3 8 17 12 36 10 32 -3 32 -4 79 -150z m930 97 c0 -21 5 -25 30 -25 23
0 30 -4 30 -20 0 -16 -7 -20 -30 -20 -30 0 -30 -1 -30 -54 0 -67 7 -86 31 -86
12 0 19 -7 19 -20 0 -16 -7 -20 -33 -20 -49 0 -57 14 -57 102 0 71 -2 78 -20
78 -12 0 -20 7 -20 16 0 9 9 18 20 21 11 3 20 13 20 23 0 17 12 27 33 29 4 1
7 -10 7 -24z m-800 -41 c0 -14 2 -14 22 0 34 24 85 20 113 -8 45 -45 41 -147
-8 -181 -26 -18 -88 -20 -105 -3 -9 9 -12 -1 -12 -45 0 -54 -1 -57 -25 -57
l-25 0 0 155 c0 148 1 155 20 155 11 0 20 -7 20 -16z m250 0 c0 -14 2 -14 22
0 34 24 85 20 113 -8 45 -45 41 -147 -8 -181 -26 -18 -88 -20 -105 -3 -9 9
-12 -1 -12 -45 0 -54 -1 -57 -25 -57 l-25 0 0 155 c0 148 1 155 20 155 11 0
20 -7 20 -16z m794 5 c27 -12 56 -63 56 -97 0 -32 -16 -68 -41 -91 -34 -31
-108 -29 -142 4 -68 69 -23 195 70 195 18 0 43 -5 57 -11z m136 -5 c0 -14 2
-14 22 0 12 9 28 16 35 16 24 0 13 -35 -17 -52 -29 -17 -30 -19 -30 -93 0 -73
-1 -75 -25 -75 l-25 0 0 110 c0 103 1 110 20 110 11 0 20 -7 20 -16z m245 10
c20 -8 45 -56 45 -89 0 -24 -2 -25 -70 -25 -62 0 -70 -2 -70 -19 0 -29 29 -46
76 -44 45 2 67 -13 43 -28 -8 -5 -36 -9 -62 -9 -41 0 -53 5 -79 30 -28 29 -30
35 -26 87 4 46 10 61 32 80 27 23 76 30 111 17z"/>
<path d="M1020 705 c0 -27 6 -30 29 -16 17 11 7 41 -14 41 -9 0 -15 -9 -15
-25z"/>
<path d="M1020 645 c0 -18 5 -25 20 -25 24 0 28 35 4 44 -23 9 -24 8 -24 -19z"/>
<path d="M1144 639 c-3 -6 -2 -15 4 -21 13 -13 32 -2 32 18 0 16 -26 19 -36 3z"/>
<path d="M1447 635 c-7 -16 8 -29 23 -20 15 9 12 35 -4 35 -8 0 -16 -7 -19
-15z"/>
<path d="M1855 640 c-3 -5 -4 -14 0 -20 8 -13 35 -1 35 16 0 16 -26 19 -35 4z"/>
<path d="M1073 397 c-7 -23 -15 -50 -18 -59 -6 -15 -1 -18 33 -18 l40 0 -17
55 c-9 30 -19 57 -22 59 -3 3 -10 -14 -16 -37z"/>
<path d="M1326 354 c-10 -9 -16 -33 -16 -59 0 -36 5 -48 24 -60 60 -40 114 62
65 122 -15 18 -54 17 -73 -3z"/>
<path d="M1576 354 c-10 -9 -16 -33 -16 -59 0 -36 5 -48 24 -60 60 -40 114 62
65 122 -15 18 -54 17 -73 -3z"/>
<path d="M2260 362 c-45 -36 -22 -142 30 -142 52 0 76 105 31 141 -29 23 -33
23 -61 1z"/>
<path d="M2646 364 c-30 -29 -20 -44 29 -44 38 0 45 3 45 20 0 18 -26 40 -49
40 -5 0 -17 -7 -25 -16z"/>
</g>
</svg>
