<?xml version="1.0" standalone="no"?>
<!DOCTYPE svg PUBLIC "-//W3C//DTD SVG 20010904//EN"
 "http://www.w3.org/TR/2001/REC-SVG-20010904/DTD/svg10.dtd">
<svg version="1.0" xmlns="http://www.w3.org/2000/svg"
 width="564.000000pt" height="168.000000pt" viewBox="0 0 564.000000 168.000000"
 preserveAspectRatio="xMidYMid meet">

<g transform="translate(0.000000,168.000000) scale(0.100000,-0.100000)"
fill="#000000" stroke="none">
<path d="M145 1626 c-37 -17 -80 -62 -94 -99 -18 -46 -15 -1338 3 -1380 17
-43 78 -95 118 -102 18 -3 1221 -4 2674 -3 l2641 3 37 29 c79 59 76 29 76 766
0 737 3 707 -76 766 l-37 29 -2656 2 c-2204 2 -2661 0 -2686 -11z m2915 -182
c0 -18 -24 -44 -40 -44 -17 0 -18 3 -8 25 9 21 48 37 48 19z m-1180 -82 c39
-29 51 -61 47 -121 -3 -46 -9 -59 -36 -83 -28 -25 -39 -28 -101 -28 l-70 0 0
123 c0 68 3 127 8 131 13 14 126 -3 152 -22z m130 -102 c0 -123 -1 -130 -20
-130 -19 0 -20 7 -20 123 0 125 2 137 27 137 10 0 13 -28 13 -130z m178 114
c12 -8 22 -21 22 -29 0 -23 -20 -28 -40 -10 -25 23 -64 16 -68 -13 -3 -18 5
-26 45 -43 57 -24 73 -42 73 -85 0 -38 -38 -74 -79 -74 -36 0 -91 36 -91 59 0
29 27 33 44 5 27 -40 86 -27 86 19 0 12 -17 26 -54 42 -79 35 -96 76 -51 120
28 29 79 33 113 9z m191 5 c36 -13 51 -35 51 -75 0 -44 -36 -74 -87 -74 l-43
0 0 -50 c0 -43 -3 -50 -20 -50 -19 0 -20 7 -20 123 0 68 3 127 7 130 10 11 77
8 112 -4z m293 -26 c80 -80 36 -218 -74 -230 -142 -16 -206 172 -85 248 47 30
119 22 159 -18z m130 20 c8 -10 35 -51 59 -90 l44 -72 5 87 c4 72 8 87 23 90
15 3 17 -8 17 -128 0 -130 0 -131 -22 -128 -16 2 -39 29 -78 93 l-55 90 -3
-92 c-2 -85 -4 -93 -22 -93 -19 0 -20 7 -20 123 0 68 3 127 7 130 11 12 29 8
45 -10z m238 -113 c0 -123 -1 -130 -20 -130 -19 0 -20 7 -20 123 0 125 2 137
27 137 10 0 13 -28 13 -130z m104 33 c17 -51 33 -93 36 -93 3 0 19 42 36 93
25 76 34 93 52 95 12 2 22 0 22 -5 0 -4 -20 -62 -44 -128 -39 -106 -47 -120
-67 -120 -21 0 -28 13 -66 120 -23 66 -42 124 -42 128 -1 5 9 7 21 5 18 -2 27
-19 52 -95z m321 72 c0 -17 -8 -20 -57 -23 -57 -3 -58 -4 -58 -32 0 -28 2 -29
52 -32 41 -2 54 -7 56 -20 3 -15 -5 -18 -52 -18 l-56 0 0 -35 0 -34 57 -3 c46
-2 59 -7 61 -20 3 -16 -6 -18 -77 -18 l-81 0 0 123 c0 68 3 127 7 131 4 4 39
5 78 4 62 -3 70 -5 70 -23z m85 -85 l0 -110 55 0 c48 0 55 -2 55 -20 0 -18 -7
-20 -75 -20 l-75 0 0 123 c0 125 2 137 27 137 10 0 13 -25 13 -110z m272 93
c8 -10 35 -51 59 -90 l44 -72 5 87 c4 72 8 87 23 90 15 3 17 -8 17 -128 0
-130 0 -131 -22 -128 -16 2 -39 29 -78 93 l-55 90 -3 -92 c-2 -85 -4 -93 -22
-93 -19 0 -20 7 -20 123 0 68 3 127 7 130 11 12 29 8 45 -10z m409 -19 c82
-79 38 -219 -73 -231 -142 -16 -206 172 -85 248 46 29 118 22 158 -17z m-3717
12 c46 -19 794 -443 834 -473 37 -27 43 -70 15 -95 -20 -17 -211 -128 -221
-128 -4 0 -46 39 -94 87 l-88 88 -260 -260 c-142 -142 -263 -256 -267 -251 -4
4 -8 233 -8 508 l0 500 24 19 c28 23 24 22 65 5z m1591 -426 c22 -10 49 -25
60 -33 20 -16 20 -16 -6 -42 l-26 -27 -44 23 c-100 51 -214 15 -263 -83 -28
-56 -32 -92 -16 -150 38 -137 226 -185 322 -82 15 16 30 41 33 56 l7 27 -89 3
-88 3 0 40 0 40 126 3 127 3 5 -28 c3 -15 1 -50 -4 -77 -30 -159 -173 -239
-340 -190 -73 21 -159 107 -179 179 -66 230 159 430 375 335z m1423 -257 l2
-263 -40 0 -40 0 0 266 0 265 38 -3 37 -3 3 -262z m765 256 c46 -12 100 -58
117 -99 16 -40 8 -115 -17 -149 -37 -49 -90 -71 -175 -71 l-78 0 0 -100 0
-100 -40 0 -40 0 0 265 0 265 98 0 c53 0 114 -5 135 -11z m247 -254 l0 -265
-40 0 -40 0 0 265 0 265 40 0 40 0 0 -265z m-2002 64 c95 -47 128 -169 69
-258 -49 -74 -141 -100 -222 -62 -70 32 -105 86 -105 161 0 75 35 129 105 161
53 24 99 24 153 -2z m364 10 c86 -23 140 -124 117 -215 -32 -124 -190 -175
-285 -92 -47 42 -64 77 -64 138 0 126 108 204 232 169z m398 -14 c18 -16 20
-17 20 -2 0 13 9 17 41 17 l41 0 -4 -192 c-4 -227 -13 -257 -88 -296 -53 -27
-101 -28 -156 -3 -35 16 -84 66 -84 85 0 3 15 12 33 19 30 13 33 12 59 -15 20
-22 35 -28 66 -28 55 0 82 24 89 80 6 45 6 45 -15 27 -33 -30 -93 -33 -144 -8
-140 67 -135 261 7 327 38 18 110 12 135 -11z m519 -2 c29 -22 71 -80 71 -99
0 -7 -52 -34 -115 -60 -63 -26 -115 -51 -115 -56 0 -4 12 -15 26 -25 36 -23
90 -20 119 7 23 22 24 22 54 4 37 -22 37 -24 8 -52 -105 -99 -277 -43 -302 99
-14 77 41 178 109 199 45 13 114 5 145 -17z m991 9 c19 -9 45 -32 57 -51 21
-31 23 -46 23 -157 l0 -124 -40 0 c-28 0 -40 4 -40 14 0 11 -8 10 -37 -5 -42
-22 -69 -24 -110 -8 -66 25 -98 90 -73 149 23 56 113 91 184 72 28 -8 36 -7
36 2 0 44 -99 66 -135 30 -15 -16 -19 -16 -51 -1 -31 15 -33 19 -22 37 19 29
87 60 133 60 22 0 56 -8 75 -18z m212 -97 c22 -55 43 -103 47 -108 4 -4 26 42
50 103 l42 110 46 0 c32 0 44 -4 40 -12 -28 -70 -202 -466 -210 -476 -12 -15
-77 -16 -77 -1 0 6 16 47 35 91 l35 80 -65 149 c-36 83 -65 154 -65 160 0 6
18 9 41 7 l41 -3 40 -100z"/>
<path d="M1760 1255 l0 -85 44 0 c36 0 48 5 65 26 12 15 21 41 21 59 0 18 -9
44 -21 59 -17 21 -29 26 -65 26 l-44 0 0 -85z"/>
<path d="M2300 1305 c0 -34 1 -35 40 -35 34 0 41 4 46 24 9 36 -2 46 -47 46
-38 0 -39 -1 -39 -35z"/>
<path d="M2519 1321 c-75 -75 11 -199 104 -149 34 18 46 40 47 84 0 86 -90
125 -151 65z"/>
<path d="M4079 1321 c-75 -75 11 -199 104 -149 34 18 46 40 47 84 0 86 -90
125 -151 65z"/>
<path d="M4140 785 l0 -85 75 0 c69 0 78 2 100 26 34 37 33 78 -4 115 -27 27
-35 29 -100 29 l-71 0 0 -85z"/>
<path d="M2389 661 c-61 -62 -20 -173 64 -173 74 0 117 61 96 137 -20 70 -106
89 -160 36z"/>
<path d="M2776 659 c-73 -87 20 -212 118 -159 58 30 62 135 7 177 -9 7 -35 13
-58 13 -34 0 -46 -5 -67 -31z"/>
<path d="M3179 677 c-41 -31 -52 -114 -21 -154 24 -32 71 -44 110 -28 39 17
52 42 52 100 0 60 -32 95 -87 95 -21 0 -45 -6 -54 -13z"/>
<path d="M3705 691 c-11 -5 -27 -17 -36 -27 -21 -24 -32 -67 -16 -61 141 56
148 60 135 73 -18 18 -59 25 -83 15z"/>
<path d="M4680 560 c-38 -38 -18 -70 42 -70 59 0 117 67 72 84 -34 13 -94 6
-114 -14z"/>
</g>
</svg>
